# xmcd
# Track frame offsets:
# 150
# 15799
# 34575
# 63320
# 82237
# 98114
# 120009
# 132908
# 154521
# 173681
# 194142
# 223192
# 242987
# 256309
# 274999
# 299864
# 321219
# 343240
# 366005
# 382595
#
# Disc length: 5337 seconds
# Revision: 0
# Processed by: cddbd v1.4PL0 Copyright (c) Steve Scherf et al.
# Submitted via: VisiTrax 2.9.5.181 - For more info visit www.synapsa.com
#
DISCID=2914d714
DTITLE=Eagles - Eagles Greatest Hits Vol 1 and 2
DYEAR=2003
DGENRE=Country
TTITLE0=Take it Easy
TTITLE1=Witchy Woman
TTITLE2=Lyin' Eyes
TTITLE3=Already Gone
TTITLE4=Desperado
TTITLE5=One Of These Nights
TTITLE6=Tequila Sunshine
TTITLE7=Take It To The Limit
TTITLE8=Peaceful Easy Feeling
TTITLE9=Best Of My Love
TTITLE10=Hotel California
TTITLE11=Heartache Tonight
TTITLE12=Seven Brigdes Road
TTITLE13=Victim Of Love
TTITLE14=The Sad Cafe
TTITLE15=Life in the Fast Lane
TTITLE16=I Can't Tell You Why
TTITLE17=New Kid In Town
TTITLE18=The Long Run
TTITLE19=After The Thrill Is Gone
EXTD=
EXTT0=
EXTT1=
EXTT2=
EXTT3=
EXTT4=
EXTT5=
EXTT6=
EXTT7=
EXTT8=
EXTT9=
EXTT10=
EXTT11=
EXTT12=
EXTT13=
EXTT14=
EXTT15=
EXTT16=
EXTT17=
EXTT18=
EXTT19=
PLAYORDER=
